<?xml version="1.0" encoding="utf-8"?>
<!-- Generator: Adobe Illustrator 25.2.3, SVG Export Plug-In . SVG Version: 6.00 Build 0)  -->
<svg version="1.1" id="レイヤー_1" xmlns="http://www.w3.org/2000/svg" xmlns:xlink="http://www.w3.org/1999/xlink" x="0px"
	 y="0px" viewBox="0 0 182 333" style="enable-background:new 0 0 182 333;" xml:space="preserve">
<style type="text/css">
	.st0{fill-rule:evenodd;clip-rule:evenodd;}
</style>
<g>
	<path class="st0" d="M165,0c-17,23-91,8-82,98C64,51,18,71,2,58c-9,60,17,90,79,91v35h15v-53C171,112,194,68,165,0z M96,123v1
		c48-31,27-64,49-76C120,50,126,93,96,123z M81,143v-2c-28-18-33-52-54-48C48,98,38,128,81,143z"/>
	<path class="st0" d="M18,174h155c5,0,9,4,9,9v28c0,5-4,9-9,9H18c-5,0-9-4-9-9v-28C9,178,13,174,18,174z"/>
	<path class="st0" d="M29,235h134c6,0,11,5,10,10l-14,77c-1,5-4,10-10,10H42c-6,0-9-5-10-10l-13-77C18,240,23,235,29,235z"/>
</g>
</svg>
