<?xml version="1.0" encoding="utf-8"?>
<!-- Generator: Adobe Illustrator 24.1.3, SVG Export Plug-In . SVG Version: 6.00 Build 0)  -->
<svg version="1.1" id="レイヤー_1" xmlns="http://www.w3.org/2000/svg" xmlns:xlink="http://www.w3.org/1999/xlink" x="0px"
	 y="0px" viewBox="0 0 283 64" style="enable-background:new 0 0 283 64;" xml:space="preserve">
<style type="text/css">
	.st0{fill:#505050;}
</style>
<g>
	<path class="st0" d="M9.7,12.9v18.3h0.1l5-9.5h9.8L17,33.1l8.6,16.1h-9.8l-4.6-9.5l-1.5,2.4v7H0.5V12.9H9.7z"/>
	<path class="st0" d="M35.3,21.6v18.2c0,1.2,0.2,2,0.5,2.5s0.9,0.8,1.7,0.8s1.4-0.3,1.7-0.8s0.5-1.3,0.5-2.5V21.6h9.1V49h-8.9v-3.4
		h-0.1c-1.2,2.6-3.4,3.9-6.6,3.9c-1.1,0-1.9-0.1-2.8-0.3s-1.6-0.6-2.2-1.2c-0.6-0.6-1.2-1.3-1.5-2.3c-0.3-1.1-0.6-2.2-0.6-3.7V21.6
		H35.3z"/>
	<path class="st0" d="M65.5,28.6c-0.3-0.5-0.9-0.8-1.7-0.8s-1.4,0.3-1.7,0.8s-0.5,1.3-0.5,2.5v18.2h-9.1V21.6h8.9V25h0.1
		c1.3-2.7,3.5-4,6.6-4c1.9,0,3.4,0.3,4.3,1.1c1.1,0.7,1.8,1.7,2.3,3.2c0.7-1.5,1.7-2.6,2.9-3.3s2.5-0.9,3.9-0.9
		c1.1,0,1.9,0.1,2.8,0.3c0.9,0.2,1.6,0.6,2.2,1.3c0.6,0.6,1.2,1.3,1.5,2.3c0.4,0.9,0.6,2.1,0.6,3.7v20.7h-9.1V31
		c0-1.2-0.2-2-0.5-2.5s-0.9-0.8-1.7-0.8c-0.8,0-1.4,0.3-1.7,0.8c-0.3,0.5-0.5,1.3-0.5,2.5v18.2H66V31C66,29.8,65.8,29,65.5,28.6z"/>
	<path class="st0" d="M101.4,12.9v6.7h-9.1v-6.7H101.4z M101.4,21.6V49h-9.1V21.6H101.4z"/>
	<path class="st0" d="M114.3,12.9v11.8h0.1c0.8-1.4,1.7-2.4,2.9-2.9s2.3-0.8,3.5-0.8c0.9,0,1.8,0.1,2.7,0.4c0.9,0.2,1.6,0.6,2.3,1.3
		c0.7,0.7,1.3,1.3,1.6,2.3s0.6,2.1,0.6,3.6v20.6h-9V31c0-1.2-0.2-2-0.5-2.5s-0.9-0.8-1.7-0.8c-0.8,0-1.4,0.3-1.7,0.8
		c-0.3,0.5-0.5,1.3-0.5,2.5v18.2h-9.2V12.9H114.3z"/>
	<path class="st0" d="M144.7,47.7c-0.1-0.5-0.1-1.1-0.2-1.6h-0.1c-0.5,1.3-1.3,2.1-2.4,2.7c-1.2,0.6-2.3,0.9-3.8,0.9
		s-2.5-0.2-3.6-0.5c-1.1-0.4-1.7-0.9-2.3-1.6c-0.6-0.7-1.1-1.5-1.3-2.5c-0.3-1.1-0.4-2-0.4-3.3s0.1-2.4,0.4-3.4
		c0.3-0.9,0.7-1.8,1.3-2.4c0.5-0.6,1.3-1.3,2.3-1.8c1.1-0.5,2.2-0.9,3.7-1.3L142,32c1.1-0.2,1.7-0.6,2.1-1.1
		c0.4-0.5,0.6-1.2,0.6-1.9c0-1.7-0.8-2.5-2.3-2.5c-0.9,0-1.5,0.2-1.9,0.7s-0.6,1.5-0.7,2.9h-8c0-2,0.4-3.7,1.2-4.8
		c0.7-1.3,1.6-2.1,2.6-2.8c1.1-0.7,2.2-1.2,3.5-1.3c1.3-0.2,2.3-0.3,3.5-0.3c1.6,0,3,0.1,4.4,0.4c1.3,0.3,2.5,0.7,3.5,1.4
		c0.9,0.7,1.7,1.5,2.2,2.7c0.5,1.2,0.8,2.6,0.8,4.4v13.5c0,1.3,0.1,2.4,0.2,3.5s0.3,1.8,0.7,2.5h-8.9
		C144.9,48.7,144.8,48.2,144.7,47.7z M143.8,42.5c0.4-0.7,0.7-1.9,0.7-3.5v-3.4h-0.1c-0.3,0.4-0.7,0.6-1.3,0.7
		c-0.6,0.1-1.3,0.3-1.8,0.6c-0.7,0.3-1.3,0.8-1.5,1.3c-0.3,0.5-0.4,1.3-0.4,2.2s0.2,1.6,0.6,2.2c0.4,0.5,0.9,0.8,1.6,0.8
		C142.6,43.7,143.4,43.4,143.8,42.5z"/>
	<path class="st0" d="M165.8,21.6V25h0.1c1.3-2.7,3.5-4,6.6-4c1.1,0,1.9,0.1,2.8,0.3c0.9,0.2,1.6,0.6,2.2,1.3
		c0.6,0.7,1.2,1.3,1.5,2.3c0.4,0.9,0.6,2.1,0.6,3.7v20.7h-9.1V31c0-1.2-0.2-2-0.5-2.5s-0.9-0.8-1.7-0.8s-1.4,0.3-1.7,0.8
		s-0.5,1.3-0.5,2.5v18.2H157V21.6H165.8z"/>
	<path class="st0" d="M192.5,39.1v10.1h-8.6V39.1H192.5z"/>
	<path class="st0" d="M210.2,29.7c-0.1-0.7-0.3-1.3-0.5-1.7c-0.4-0.8-1.1-1.3-2-1.3c-0.5,0-0.9,0.1-1.3,0.4
		c-0.3,0.3-0.6,0.7-0.8,1.4s-0.3,1.5-0.4,2.6c-0.1,1.2-0.1,2.5-0.1,4.2c0,1.7,0,3.2,0.1,4.2c0.1,1.2,0.2,2,0.4,2.6
		c0.2,0.6,0.5,1.2,0.8,1.3c0.4,0.3,0.8,0.4,1.3,0.4c0.8,0,1.5-0.3,1.9-1.1c0.5-0.6,0.7-1.8,0.7-3.6v-1.8h8.3c0,2.1-0.2,4-0.6,5.6
		c-0.4,1.5-1.1,2.8-1.9,3.8c-1.7,1.8-4.5,2.7-8.5,2.7c-1.7,0-3.4-0.2-4.8-0.5c-1.4-0.3-2.7-0.9-3.8-1.9c-1.1-1.1-1.8-2.4-2.4-4.2
		c-0.6-1.8-0.9-4.2-0.9-7.1c0-3.3,0.3-5.9,1.1-7.8c0.6-1.9,1.5-3.5,2.6-4.5c1.2-1.1,2.4-1.7,3.9-2.1c1.5-0.3,3.2-0.5,4.8-0.5
		c2,0,3.8,0.3,5,0.8c1.3,0.5,2.4,1.3,3.3,2.3c0.8,1.1,1.3,2.2,1.7,3.7c0.3,1.4,0.5,2.9,0.5,4.7h-8.3
		C210.3,31.4,210.3,30.4,210.2,29.7z"/>
	<path class="st0" d="M243.3,40.7c-0.3,1.7-0.8,3.3-1.6,4.6s-2,2.4-3.6,3.3c-1.5,0.8-3.7,1.3-6.2,1.3c-2.7,0-4.7-0.4-6.4-1.2
		c-1.6-0.7-2.7-1.7-3.6-3c-0.8-1.3-1.3-2.8-1.5-4.5s-0.3-3.7-0.3-5.7c0-1.8,0.1-3.6,0.4-5.3c0.3-1.7,0.8-3.3,1.6-4.6
		c0.8-1.3,2-2.4,3.6-3.3c1.5-0.8,3.7-1.3,6.2-1.3c2.6,0,4.7,0.4,6.4,1.2c1.5,0.8,2.7,1.8,3.6,3.2c0.8,1.4,1.3,2.8,1.5,4.6
		c0.2,1.7,0.3,3.7,0.3,5.7C243.7,37.2,243.5,39.1,243.3,40.7z M229.5,39.6c0.1,1.2,0.2,2,0.4,2.6c0.2,0.6,0.5,1.2,0.8,1.3
		c0.3,0.2,0.7,0.4,1.3,0.4c0.5,0,0.9-0.1,1.3-0.4c0.3-0.2,0.6-0.7,0.8-1.3s0.3-1.5,0.4-2.6c0.1-1.2,0.1-2.5,0.1-4.2
		c0-1.7,0-3.2-0.1-4.2c-0.1-1.1-0.2-2-0.4-2.6s-0.4-1.2-0.8-1.3c-0.3-0.2-0.8-0.4-1.3-0.4s-0.9,0.1-1.3,0.4
		c-0.3,0.2-0.6,0.7-0.8,1.3s-0.3,1.5-0.4,2.6c-0.1,1.2-0.1,2.5-0.1,4.2C229.5,37.2,229.5,38.6,229.5,39.6z"/>
	<path class="st0" d="M259.4,28.6c-0.3-0.5-0.9-0.8-1.7-0.8c-0.7,0-1.4,0.3-1.7,0.8s-0.5,1.3-0.5,2.5v18.2h-9.1V21.6h8.9V25h0.1
		c1.3-2.7,3.5-4,6.6-4c1.9,0,3.4,0.3,4.3,1.1c1.1,0.7,1.8,1.7,2.3,3.2c0.7-1.5,1.7-2.6,2.9-3.3c1.3-0.6,2.5-0.9,4-0.9
		c1.1,0,1.9,0.1,2.8,0.3c0.9,0.2,1.6,0.6,2.2,1.3c0.6,0.6,1.2,1.3,1.5,2.3c0.4,0.9,0.6,2.1,0.6,3.7v20.7h-9.1V31
		c0-1.2-0.2-2-0.5-2.5s-0.9-0.8-1.7-0.8c-0.8,0-1.4,0.3-1.7,0.8c-0.3,0.5-0.5,1.3-0.5,2.5v18.2H260V31
		C259.9,29.8,259.7,29,259.4,28.6z"/>
</g>
</svg>
